<svg xmlns="http://www.w3.org/2000/svg" version="1.1" xmlns:xlink="http://www.w3.org/1999/xlink" xmlns:svgjs="http://svgjs.dev/svgjs" width="33.4" height="27.8"><svg id="SvgjsSvg1197" xmlns="http://www.w3.org/2000/svg" version="1.1" viewBox="0 0 33.4 27.8">
  <!-- Generator: Adobe Illustrator 29.3.1, SVG Export Plug-In . SVG Version: 2.1.0 Build 151)  -->
  <defs>
    <style>
      .st0 {
        fill: #0033a0;
      }
    </style>
  </defs>
  <path class="st0" d="M14.2,11.4c.3,0,.6-.2.6-.6s-.2-.6-.6-.6-.6.2-.6.6.2.6.6.6Z"></path>
  <path class="st0" d="M12.3,14.7c.1,0,.2,0,.2-.1l1-2.3v2.2c0,0-.3,2.9-.3,2.9,0,.1,0,.2.2.3,0,0,0,0,0,0,.1,0,.2,0,.2-.2l.4-2.7h.5l.4,2.7c0,.1.1.2.2.2s0,0,0,0c.1,0,.2-.2.2-.3l-.4-2.9v-2.2c0,0,1,2.3,1,2.3h0s0,0,0,0h0s0,0,0,0h0s0,0,0,0h.3l-.3,1.6c0,.1,0,.2,0,.3,0,0,.1.1.2.1v.7c0,.1,0,.2.2.2s.2,0,.2-.2v-.7h.3v.7c0,.1,0,.2.2.2s.2,0,.2-.2v-.7c0,0,.1,0,.2-.1,0,0,.1-.2,0-.3l-.3-1.6h.3s0,0,0,0h0s0,0,0,0h0s0,0,0,0h0s0,0,0,0h0l1-2.4.2,1c0,.2,0,.3,0,.5l-.9,4h2.9l-.9-4c0-.2,0-.3,0-.5l.2-1,.8,1.9c0,0,.1.1.2.1s0,0,0,0c.1,0,.2-.2.1-.3l-.9-2.2c0,0-.1-.1-.2-.1h-1.6c-.1,0-.2,0-.2.1l-1.1,2.5h-1l-1.1-2.5c0,0-.1-.1-.2-.1h-1.7c-.1,0-.2,0-.2.1l-1.1,2.6c0,.1,0,.2,0,.3,0,0,0,0,.1,0h0,0Z"></path>
  <path class="st0" d="M19.5,11.4c.3,0,.5-.2.5-.6s-.2-.6-.5-.6-.5.2-.5.6.2.6.5.6Z"></path>
  <path class="st0" d="M16.9,14.1c.2,0,.4-.2.4-.4s-.2-.4-.4-.4-.4.2-.4.4.2.4.4.4Z"></path>
  <path class="st0" d="M33.4,13.1c0-4.3-2-9.1-5.2-12.7h-2.9c.8.7,1.8,1.9,1.8,1.9,2.8,3.1,4.4,7.2,4.4,10.9h0c0,.1-4.6.1-4.6.1C26.3,6.1,20.5.4,13.5.4S0,6.8,0,14.8s2,9.1,5.2,12.7h2.9c-.8-.7-1.8-1.9-1.8-1.9-2.8-3.1-4.4-7.2-4.4-10.9h0c0-.1,4.6-.1,4.6-.1.7,7.2,6.5,12.9,13.4,12.9s13.5-6.4,13.5-14.4h0ZM20.2,25.6v-3.4c1.9,0,3.7.9,4.9,2.1-1.5.8-3.2,1.3-4.9,1.3ZM20.2,21.5v-2.1h6.3c-.9,1.2-2.1,2.2-3.4,2.8-.9-.4-1.9-.6-2.9-.6ZM25.8,23.9c-.5-.5-1.1-1-1.8-1.3,1.3-.7,2.5-1.8,3.4-3.2h2.5c-1,1.9-2.5,3.4-4.2,4.5ZM31.5,14.2c-.1,1.5-.5,3-1.1,4.3h-2.5c.6-1.2,1-2.6,1-4v-.4h2.5ZM25.1,13.4h-2.4c0-1.5-.4-2.8-1-4h2.3c.5,1.2.9,2.6,1.1,4ZM23.6,8.5h-2.4c-.9-1.3-2.1-2.5-3.4-3.2.6-.3,1.2-.8,1.7-1.3,1.7,1.1,3.1,2.6,4.1,4.5h0ZM14.1,2.3c1.7,0,3.3.6,4.8,1.4-1.2,1.2-2.9,1.9-4.8,2v-3.4ZM14.1,6.4c1,0,1.9-.3,2.8-.6,1.3.6,2.5,1.5,3.4,2.7h-6.2v-2.1h0ZM13.2,2.3v3.4c-1.9,0-3.7-.9-4.9-2.1,1.5-.8,3.2-1.3,4.9-1.3ZM13.2,6.4v2.1h-6.3c.9-1.2,2.1-2.2,3.4-2.8.9.4,1.9.6,2.9.6ZM7.7,4c.5.5,1.1,1,1.8,1.3-1.3.7-2.5,1.8-3.4,3.2h-2.5c1-1.9,2.5-3.4,4.2-4.5ZM1.9,13.6c.1-1.5.5-3,1.1-4.3h2.5c-.6,1.2-1,2.6-1,4v.4H1.9ZM5.2,13.6v-.4c0-1.4.4-2.8,1.1-4h14.5c.7,1.2,1.1,2.5,1.1,4h0v.9h6.3v.4c0,1.4-.4,2.8-1.1,4h-14.5c-.7-1.2-1.1-2.5-1.1-4h0v-.9s-6.3,0-6.3,0ZM8.4,14.5h2.3c0,1.5.4,2.8,1,4h-2.3c-.6-1.2-.9-2.6-1.1-4ZM9.9,19.4h2.4c.9,1.4,2.1,2.5,3.4,3.2-.6.4-1.2.8-1.7,1.3-1.7-1.1-3.1-2.6-4.1-4.5h0ZM19.4,25.5c-1.7,0-3.3-.6-4.8-1.4,1.2-1.2,2.9-1.9,4.8-2v3.4ZM19.4,21.5c-1,0-1.9.3-2.8.6-1.3-.6-2.5-1.5-3.4-2.8h6.2v2.1h0Z"></path>
</svg><style>@media (prefers-color-scheme: light) { :root { filter: none; } }
@media (prefers-color-scheme: dark) { :root { filter: contrast(0.7407407407407407) brightness(2); } }
</style></svg>