<?xml version="1.0" encoding="UTF-8"?>
<svg id="Layer_2" data-name="Layer 2" xmlns="http://www.w3.org/2000/svg" viewBox="0 0 42.67 42.67">
  <defs>
    <style>
      .cls-1 {
        fill: #0033a0;
      }
    </style>
  </defs>
  <circle class="cls-1" cx="18.95" cy="4.16" r="4.16"/>
  <path class="cls-1" d="M34.31,13.63c-.32-1.1-.57-1.78-2.1-2.39-1.16-.23-2.16-.26-2.98-.1l-1.2.45c-.8-.19-1.89-.22-3.28-.06-.6-1.1-1.42-1.85-2.47-2.2-.83-.17-1.73-.18-2.74,0-.74.43-1.43.99-2.03,1.74-1.89,2.77-4.62,4.68-8.09,5.81-.55.22-1.03.56-1.39,1.1-.22.78-.31,1.55,0,2.32.14.38.47.73,1.22,1.03.55.13,1.09.11,1.64,0,2.42-.84,4.46-1.97,6.32-3.25.3,2.39.66,4.83,1.18,7.4-2.01,2.69-3.65,5.88-4.08,10.7-.09,1.06-.11,2.16,0,3.34.05.49.15,1.03.31,1.64.29.47.67.85,1.12,1.18.73.24,1.25.19,1.66,0,.9-.33,1.62-.9,1.6-1.58-.19-2.31-.2-4.22.02-5.59.69-2.72,1.6-5.12,2.98-6.89,1.27,5.01,2.55,10.37,3.75,13.16.37.41.94.62,1.65.71,2.65-.39,2.43-1.78,2.43-1.78,0,0-2.13-9.05-3.36-14.54l-.29-3.41c.29-.17.58-.12.87.1.57.44,2.59,1.78,2.59,1.78,0,0,.76.39,2.72.06,1.1-.39,2.55-1.84,2.55-2.88-.1-3.07-.29-5.72-.58-7.86ZM25.38,18.48l-.16-4.43,1.29-.19c-.16,1.33-.04,3.59.19,6.21-.71-.19-1.2-.66-1.33-1.58Z"/>
</svg>