<?xml version="1.0" encoding="utf-8"?>
<!-- Generator: Adobe Illustrator 17.0.0, SVG Export Plug-In . SVG Version: 6.00 Build 0)  -->
<!DOCTYPE svg PUBLIC "-//W3C//DTD SVG 1.1//EN" "http://www.w3.org/Graphics/SVG/1.1/DTD/svg11.dtd">
<svg version="1.1" id="Layer_1" xmlns="http://www.w3.org/2000/svg" xmlns:xlink="http://www.w3.org/1999/xlink" x="0px" y="0px"
	 width="120px" height="45px" viewBox="0 0 120 45" enable-background="new 0 0 120 45" xml:space="preserve">
<path id="IOM_logo_SP" fill="#0033A0" d="M85.6,0.8h-4.1v28.7h4.1V0.8z M95.1,44.6h1.3V35h-1.3V44.6z M106.4,18.2l8.9-11.1v22.4h4.1
	V0.8h-3.8L106,12.5L96.4,0.7h-3.8v28.7h4.1V7.1l9,11.1H106.4z M102.8,34.3h0.7l2.3-2.1h-2L102.8,34.3z M103.7,34.8
	c-3.3,0-5.2,2.4-5.2,4.9c0,2.7,2.1,4.8,5,4.8c3.1,0,5.3-2.2,5.3-4.9C109,37.2,106.9,34.8,103.7,34.8z M106.6,42.2
	c-0.6,0.7-1.8,1.1-2.8,1.1c-2.1,0-3.7-1.4-3.7-3.6c0-1.6,1.1-3.6,3.8-3.6c2.5,0,3.7,2.1,3.7,3.6C107.5,40.6,107.2,41.6,106.6,42.2z
	 M7.2,34.8c-3.3,0-5.2,2.4-5.2,4.9c0,2.7,2.1,4.8,5,4.8c3.1,0,5.3-2.2,5.3-4.9C12.3,37.2,10.4,34.8,7.2,34.8z M10,42.2
	c-0.6,0.7-1.8,1.1-2.8,1.1c-2.1,0-3.7-1.4-3.7-3.6c0-1.6,1.1-3.6,3.8-3.6c2.5,0,3.7,2.1,3.7,3.6C10.9,40.6,10.6,41.6,10,42.2z
	 M118,35v7.4l-6.5-7.4h-1.1v9.6h1.3v-7.4l6.4,7.4h1.1V35H118z M21.8,42.4L15.3,35h-1.1v9.6h1.3v-7.4l6.4,7.4H23V35h-1.3v7.4H21.8z
	 M32.4,40.4c0,0.9-0.1,1.4-0.3,1.8c-0.2,0.4-0.9,1.2-2.5,1.2c-1.1,0-1.8-0.4-2.2-0.8c-0.5-0.5-0.6-1-0.6-2.3v-5.5h-1.3v5.5
	c0,0.6,0,1.8,0.5,2.6c0.7,1.2,2.3,1.6,3.6,1.6c1.1,0,2.2-0.3,3-1c1.1-0.9,1.1-2.3,1.1-3.2v-5.5h-1.3V40.4z M60.7,41.1h1.9v2
	c-0.9,0.3-1.4,0.4-2.1,0.4c-2.3,0-3.8-1.5-3.8-3.7c0-2.3,1.9-3.7,3.7-3.7c0.5,0,1.9,0.1,3.4,1v-1.4c-1-0.4-2.1-0.8-3.4-0.8
	c-3.3,0-5.2,2.5-5.2,5c0,2.2,1.5,4.8,5.3,4.8c1.6,0,2.8-0.5,3.5-0.8v-4h-3.3V41.1z M23.6,12.7h-1.8c-0.1,0-0.2,0.1-0.2,0.1l-1.1,2.7
	h-1.1l-1.1-2.7c0-0.1-0.1-0.1-0.2-0.1h-1.8c-0.1,0-0.2,0.1-0.2,0.1L15,15.6c0,0.1,0,0.2,0.1,0.3h0.1c0.1,0,0.2-0.1,0.2-0.1l1-2.5
	l0.1,2.4l-0.4,3c0,0.1,0,0.2,0.2,0.3h0.1c0.1,0,0.2-0.1,0.2-0.2l0.4-2.9h0.5l0.4,2.9c0,0.1,0.1,0.2,0.2,0.2h0.1
	c0.1,0,0.2-0.2,0.2-0.3l-0.4-3l0.1-2.4l1,2.5l0,0l0,0l0,0l0,0l0,0l0,0l0,0l0,0l0,0l0,0l0,0l0,0l0,0h0.2L19,17.5c0,0.1,0,0.2,0.1,0.3
	c0,0.1,0.1,0.1,0.2,0.1v0.7c0,0.1,0.1,0.2,0.2,0.2s0.2-0.1,0.2-0.2v-0.7l0,0l0,0h0.1H20l0,0l0,0l0,0v0.7c0,0.1,0.1,0.2,0.2,0.2
	s0.2-0.1,0.2-0.2v-0.5c0.1,0,0.1-0.1,0.2-0.1c0.1-0.1,0.1-0.2,0.1-0.3l-0.3-1.8h0.2l0,0l0,0l0,0l0,0l0,0l0,0l0,0l0,0l0,0l0,0l0,0
	l0,0l0,0l1-2.6l0.2,1c0,0.2,0,0.3,0,0.5l-1,4.2h3.1l-1-4.2c0-0.2,0-0.3,0-0.5l0.2-1l0.8,2.1c0,0.1,0.1,0.2,0.2,0.2h0.1
	c0.1-0.1,0.2-0.2,0.1-0.3L23.4,13C23.8,12.8,23.7,12.7,23.6,12.7z M19.9,15.3c0.2,0,0.4-0.2,0.4-0.4s-0.2-0.4-0.4-0.4
	c-0.2,0-0.4,0.2-0.4,0.4C19.4,15.1,19.7,15.3,19.9,15.3z M17.1,12.4c0.3,0,0.6-0.3,0.6-0.6s-0.3-0.6-0.6-0.6c-0.3,0-0.6,0.3-0.6,0.6
	C16.5,12.1,16.8,12.4,17.1,12.4z M44.7,38.9L41.5,35h-1.3v9.6h1.3v-7.4l3,3.7h0.2l3-3.7v7.4H49V35h-1.2L44.7,38.9z M76.6,15.1
	c0-7.7-6-14.7-15.6-14.7c-9.8,0-15.3,7.2-15.3,14.8c0,8,6.2,14.6,15.1,14.6C70.2,29.9,76.6,23.4,76.6,15.1z M49.9,15.2
	c0-4.8,3.3-10.9,11.3-10.9c7.5,0,11.1,6.1,11.1,10.8c0,2.5-1,5.6-2.9,7.6c-2,2.2-5.4,3.4-8.3,3.4C55.1,26,49.9,21.7,49.9,15.2z
	 M51.8,44.6h1.3V35h-1.3V44.6z M78.3,34.9l-4.1,9.7h1.4l1.2-2.8h4.1l1.2,2.8h1.4l-4.3-9.7C79.3,34.9,78.3,34.9,78.3,34.9z
	 M77.3,40.5l1.4-3.5l1.5,3.5H77.3z M70.3,40c1-0.4,1.6-1.2,1.6-2.4c0-0.9-0.5-2-1.5-2.4c-0.6-0.3-1.2-0.3-1.6-0.3h-2.4v9.6h1.3v-4.2
	h0.4c0.6,0,1.1,0,2.1,1.2c0.3,0.4,1.6,2.5,2,3h1.6c-0.6-0.9-0.9-1.2-1.3-2C71.8,41.5,71.3,40.6,70.3,40z M69.6,39
	c-0.4,0.1-1.1,0.1-1.3,0.1h-0.5v-3h0.4c0.8,0,1.2,0.1,1.6,0.2c0.4,0.2,0.7,0.7,0.7,1.2C70.5,38.2,70.3,38.7,69.6,39z M85.6,39.7
	c0-2,1.4-3.6,3.8-3.6c1.1,0,2.3,0.4,3.3,0.9v-1.4c-0.6-0.3-1.9-0.8-3.4-0.8c-3,0-5.2,2.3-5.2,4.9c0,2.3,1.6,4.9,5.2,4.9
	c1.2,0,2.4-0.2,3.5-0.8v-1.5c-1,0.6-2.2,1-3.4,1C86.8,43.4,85.6,41.6,85.6,39.7z M28.9,0.8c0.8,0.7,1.9,2,1.9,2
	c2.9,3.3,4.6,7.6,4.6,11.6v0.1h-4.8C29.8,6.9,23.8,0.8,16.3,0.8c-8,0-14.4,6.8-14.4,15.3c0,4.5,2.1,9.7,5.5,13.5h3
	c-0.8-0.7-1.9-2-1.9-2C5.6,24.3,3.9,20,3.9,15.9v-0.1h4.8c0.7,7.6,6.8,13.7,14.3,13.7c7.9,0,14.3-6.8,14.3-15.2
	c0-4.5-2.1-9.7-5.5-13.5C31.9,0.8,28.9,0.8,28.9,0.8z M28.6,14.6h-2.5c0,0,0,0,0-0.1c0-1.4-0.4-2.9-1.1-4.2h2.5
	C28.1,11.6,28.4,13.1,28.6,14.6z M27.1,9.4h-2.6C23.6,8,22.2,6.8,20.9,6c0.6-0.4,1.2-0.8,1.9-1.3C24.5,5.9,25.9,7.5,27.1,9.4z
	 M17,2.9c1.9,0.1,3.5,0.6,5,1.4c-1.3,1.2-3.1,2.1-5,2.2V2.9z M17,7.2c1-0.1,2.1-0.3,3-0.7c1.3,0.6,2.7,1.6,3.6,2.9H17V7.2z M16,2.9
	v3.6c-2.1-0.1-3.9-0.9-5.3-2.2C12.3,3.4,14.2,2.9,16,2.9z M16,7.2v2.3H9.3c0.9-1.3,2.3-2.4,3.6-2.9C13.9,6.9,14.9,7.1,16,7.2z
	 M10.1,4.6c0.5,0.5,1.1,1,1.9,1.4c-1.3,0.7-2.7,2-3.6,3.4H5.6C6.7,7.4,8.2,5.7,10.1,4.6z M4,14.9c0.1-1.6,0.5-3.2,1.1-4.5h2.6
	c-0.7,1.2-1.1,2.7-1.1,4.2c0,0.1,0,0.3,0,0.4H4V14.9z M10.9,15.7h2.5c0,0,0,0,0,0.1c0,1.4,0.4,2.9,1.1,4.2H12
	C11.4,18.7,11,17.3,10.9,15.7z M12.4,20.9H15c0.9,1.4,2.3,2.6,3.6,3.4c-0.6,0.4-1.2,0.8-1.9,1.3C15,24.5,13.5,22.8,12.4,20.9z
	 M22.5,27.5c-1.9-0.1-3.5-0.6-5-1.4c1.3-1.2,3.1-2.1,5-2.2V27.5z M22.5,23.2c-1,0.1-2.1,0.3-3,0.7c-1.3-0.6-2.7-1.6-3.6-2.9h6.6
	V23.2z M15.3,20.1c-0.7-1.2-1.2-2.7-1.2-4.2c0,0,0,0,0-0.1l0,0v-0.9H7.4c0-0.1,0-0.3,0-0.4c0-1.5,0.4-3,1.2-4.2h15.5
	c0.7,1.2,1.2,2.7,1.2,4.2c0,0,0,0,0,0.1l0,0v0.9H32c0,0.1,0,0.3,0,0.4c0,1.5-0.4,3-1.2,4.2H15.3z M30.2,20.9
	c-0.9,1.3-2.3,2.4-3.6,2.9c-0.9-0.4-2-0.6-3.1-0.7v-2.3h6.7V20.9z M23.5,27.5v-3.6c2.1,0.1,3.9,0.9,5.3,2.2
	C27.1,27,25.3,27.5,23.5,27.5z M29.3,25.7c-0.5-0.5-1.1-1-1.9-1.4c1.3-0.7,2.7-2,3.6-3.4h2.8C32.7,23,31.2,24.6,29.3,25.7z
	 M34.3,20.1h-2.6c0.7-1.2,1.1-2.7,1.1-4.2c0-0.1,0-0.3,0-0.4h2.7C35.3,17.1,34.9,18.6,34.3,20.1z M22.6,12.4c0.3,0,0.6-0.3,0.6-0.6
	s-0.3-0.6-0.6-0.6S22,11.5,22,11.8S22.3,12.4,22.6,12.4z"/>
</svg>
