<?xml version="1.0" encoding="UTF-8"?>
<svg id="Layer_2" data-name="Layer 2" xmlns="http://www.w3.org/2000/svg" viewBox="0 0 575.76 573.75">
  <defs>
    <style>
      .cls-1 {
        fill: #0033a0;
      }
    </style>
  </defs>
  <path class="cls-1" d="M13,254.75c-17.33,13.67-17.33,27.33,0,41h93v71c2.71,11.66,13.69,15.71,32,13l92-93c7.15-7.95,6.54-16.31,0-25l-91-91c-16.25-3-26.31-.06-30,9v74.99H13Z"/>
  <path class="cls-1" d="M172.29,156.26v-48.52c13.51-30.21,31.79-43.7,53.25-45.99h249.69c19.88,5.09,31.86,17.72,36.77,37.12v395.25c-5.14,14.51-12.82,26.41-25.53,33.13l-134.31,46.5h-23.08c-15.06-8.49-24.49-17.88-28.4-28.16v-35.5s-79.88-.59-79.88-.59c-26.47-9.27-43-25.92-49.11-50.29l-.59-64.49c13.98-18.12,27.61-19.4,40.83-.59l-.59,57.39c3.38,8.33,9.31,13.82,17.16,17.16h71s0-330.75,0-330.75c6.27-14.78,16.86-26.15,30.77-34.91h-104.14c-4.9,1.1-9.62,6.56-14.2,15.98l-.59,37.87c-11.54,12.8-24.36,14.27-39.05-.59Z"/>
</svg>