<?xml version="1.0" encoding="UTF-8"?>
<svg id="Layer_2" data-name="Layer 2" xmlns="http://www.w3.org/2000/svg" viewBox="0 0 581.15 575.13">
  <defs>
    <style>
      .cls-1 {
        fill: #0033a0;
      }
    </style>
  </defs>
  <path class="cls-1" d="M281.1,511.07h80.33c21.26-.79,43.53-28.57,46.46-49.61v-102.38c0-22.84-38.59-25.2-40.95,0l.79,93.72c-.11,11.08-6.26,17.41-16.54,20.48l-70.09-1.58V140.93c-.34-14.69-12.35-26.3-30.71-36.23h100.8c9.07,1.64,15.26,7.34,17.33,18.9v72.45c.79,16.54,39.38,18.9,39.38,0v-86.63c-4.73-25.2-22.05-39.38-51.19-46.3H103.12c-14.19,4.9-26.22,15.16-33.97,36.06v401.64c8.09,13.04,15.81,22.2,22.94,25.2l135.46,49.1h25.99c16.81-7.45,25.54-20.18,27.56-37.29v-26.78Z"/>
  <path class="cls-1" d="M454.36,257.48v-74.03c4.73-15.75,23.24-17.51,37.8,0l85.84,82.69c8.15,7.6,6.63,13.97,0,19.69l-90.57,92.14c-10.47,9.48-32.29,1.58-33.08-8.66v-72.45s-93.72-.79-93.72-.79c-18.9-1.58-14.18-33.86,0-40.16l93.72,1.58Z"/>
</svg>